<svg xmlns="http://www.w3.org/2000/svg" viewBox="0 0 960 680" font-family="Arial, sans-serif">
  <style>
    .hdr{fill:#1f7a5a}.panel{fill:#fff;stroke:#ddd;stroke-width:1.5;rx:8;ry:8}
    .label{fill:#333;font-size:12;font-weight:bold;dominant-baseline:middle}
    .val{fill:#1f7a5a;font-size:22;font-weight:bold;dominant-baseline:middle}
    .sublabel{fill:#888;font-size:9;dominant-baseline:middle}
    .th{fill:#e8f5e9;font-size:9;font-weight:bold}.cell{fill:#fafafa;stroke:#eee;stroke-width:0.5}
    .badge-green{fill:#e8f5e9;rx:4;ry:4}
    .badge-red{fill:#fce4ec;rx:4;ry:4}
    .badge-amber{fill:#fff3e0;rx:4;ry:4}
  </style>

  <!-- Header -->
  <rect x="0" y="0" width="960" height="42" class="hdr" rx="0"/>
  <text x="20" y="26" fill="#fff" font-size="14" font-weight="bold">MDRF Manage — East Khasi Hills District</text>
  <rect x="820" y="10" width="125" height="24" rx="6" fill="#fff" opacity="0.2"/>
  <text x="882" y="27" fill="#fff" font-size="10" text-anchor="middle">↧ Export Report</text>

  <!-- Stat cards -->
  <rect x="12" y="55" width="225" height="72" class="panel"/>
  <text x="124" y="82" class="val">14</text><text x="124" y="102" class="sublabel" text-anchor="middle">Fellows</text>
  <text x="124" y="115" class="sublabel" text-anchor="middle">(12 MDRF + 2 DS + 0 SRF)</text>

  <rect x="252" y="55" width="225" height="72" class="panel"/>
  <text x="364" y="82" class="val">71%</text><text x="364" y="102" class="sublabel" text-anchor="middle">Overall Compliance</text>
  <rect x="364" y="110" width="100" height="10" rx="5" fill="#eee"/>
  <rect x="364" y="110" width="71" height="10" rx="5" fill="#1f7a5a"/>

  <rect x="492" y="55" width="225" height="72" class="panel"/>
  <text x="604" y="82" class="val" fill="#d32f2f">3</text><text x="604" y="102" class="sublabel" text-anchor="middle">Silent (&gt;3 days)</text>
  <text x="604" y="115" class="sublabel" text-anchor="middle" fill="#d32f2f">⚠ Needs attention</text>

  <rect x="732" y="55" width="215" height="72" class="panel"/>
  <text x="840" y="82" class="val">5</text><text x="840" y="102" class="sublabel" text-anchor="middle">Open Requests</text>
  <text x="840" y="115" class="sublabel" text-anchor="middle">🔴 2 High urgency</text>

  <!-- Alerts bar -->
  <rect x="12" y="140" width="936" height="28" class="panel" fill="#fef3e2" stroke="#e8942a"/>
  <text x="20" y="158" font-size="10" fill="#e8942a" font-weight="bold">⚠ Alerts: 3 silent fellows  ·  1 stuck task  ·  2 urgent support requests</text>

  <!-- Main compliance table -->
  <rect x="12" y="180" width="656" height="340" class="panel"/>
  <text x="22" y="200" class="label">📊 Weekly Compliance — W27 (30 Jun – 6 Jul)</text>
  <line x1="22" y1="210" x2="658" y2="210" stroke="#ddd"/>

  <!-- Table header -->
  <rect x="22" y="218" width="636" height="24" rx="3" fill="#e8f5e9"/>
  <text x="30" y="234" font-size="9" font-weight="bold" fill="#333">Fellow</text>
  <text x="140" y="234" font-size="9" font-weight="bold" fill="#333">District</text>
  <text x="250" y="234" font-size="9" font-weight="bold" fill="#333">Logs</text>
  <text x="320" y="234" font-size="9" font-weight="bold" fill="#333">Target</text>
  <text x="380" y="234" font-size="9" font-weight="bold" fill="#333">Load</text>
  <text x="440" y="234" font-size="9" font-weight="bold" fill="#333">Streak</text>
  <text x="510" y="234" font-size="9" font-weight="bold" fill="#333">Last Active</text>
  <text x="590" y="234" font-size="9" font-weight="bold" fill="#333">Status</text>

  <line x1="22" y1="244" x2="658" y2="244" stroke="#ddd"/>

  <!-- Row 1 -->
  <rect x="22" y="246" width="636" height="28" fill="#fafafa"/>
  <text x="30" y="264" font-size="10" fill="#333">Anita Sharma</text>
  <text x="140" y="264" font-size="10" fill="#666">East Khasi Hills</text>
  <text x="250" y="264" font-size="10" fill="#1f7a5a" font-weight="bold">5</text>
  <text x="320" y="264" font-size="10" fill="#1f7a5a" font-weight="bold">✓</text>
  <text x="380" y="264" font-size="10" fill="#666">Optimal</text>
  <text x="440" y="264" font-size="10" fill="#d48924">7d</text>
  <text x="510" y="264" font-size="10" fill="#666">2h ago</text>
  <rect x="590" y="250" width="50" height="16" rx="4" class="badge-green"/>
  <text x="615" y="262" font-size="8" fill="#388e3c" text-anchor="middle">Active</text>
  <line x1="22" y1="276" x2="658" y2="276" stroke="#eee"/>

  <!-- Row 2 -->
  <rect x="22" y="278" width="636" height="28"/>
  <text x="30" y="296" font-size="10" fill="#333">Rajesh Verma</text>
  <text x="140" y="296" font-size="10" fill="#666">West Garo Hills</text>
  <text x="250" y="296" font-size="10" fill="#d32f2f" font-weight="bold">2</text>
  <text x="320" y="296" font-size="10" fill="#d32f2f">✗</text>
  <text x="380" y="296" font-size="10" fill="#d32f2f">Over</text>
  <text x="440" y="296" font-size="10" fill="#666">—</text>
  <text x="510" y="296" font-size="10" fill="#666">4d ago</text>
  <rect x="590" y="284" width="50" height="16" rx="4" class="badge-red"/>
  <text x="615" y="296" font-size="8" fill="#d32f2f" text-anchor="middle">Silent</text>
  <line x1="22" y1="308" x2="658" y2="308" stroke="#eee"/>

  <!-- Row 3 -->
  <rect x="22" y="310" width="636" height="28" fill="#fafafa"/>
  <text x="30" y="328" font-size="10" fill="#333">Priya Nongrum</text>
  <text x="140" y="328" font-size="10" fill="#666">Ri Bhoi</text>
  <text x="250" y="328" font-size="10" fill="#1f7a5a" font-weight="bold">7</text>
  <text x="320" y="328" font-size="10" fill="#1f7a5a" font-weight="bold">✓</text>
  <text x="380" y="328" font-size="10" fill="#666">Under</text>
  <text x="440" y="328" font-size="10" fill="#d48924">5d</text>
  <text x="510" y="328" font-size="10" fill="#666">1d ago</text>
  <rect x="590" y="316" width="50" height="16" rx="4" class="badge-green"/>
  <text x="615" y="328" font-size="8" fill="#388e3c" text-anchor="middle">Active</text>
  <line x1="22" y1="340" x2="658" y2="340" stroke="#eee"/>

  <!-- Row 4 -->
  <rect x="22" y="342" width="636" height="28"/>
  <text x="30" y="360" font-size="10" fill="#333">John Lyngdoh</text>
  <text x="140" y="360" font-size="10" fill="#666">East Jaintia</text>
  <text x="250" y="360" font-size="10" fill="#e8942a" font-weight="bold">4</text>
  <text x="320" y="360" font-size="10" fill="#e8942a">✗</text>
  <text x="380" y="360" font-size="10" fill="#666">Optimal</text>
  <text x="440" y="360" font-size="10" fill="#666">—</text>
  <text x="510" y="360" font-size="10" fill="#666">3d ago</text>
  <rect x="590" y="348" width="50" height="16" rx="4" class="badge-amber"/>
  <text x="615" y="360" font-size="8" fill="#e8942a" text-anchor="middle">Slowing</text>
  <line x1="22" y1="372" x2="658" y2="372" stroke="#eee"/>

  <!-- Row 5 -->
  <rect x="22" y="374" width="636" height="28" fill="#fafafa"/>
  <text x="30" y="392" font-size="10" fill="#333">Maya Dewan</text>
  <text x="140" y="392" font-size="10" fill="#666">South Garo Hills</text>
  <text x="250" y="392" font-size="10" fill="#1f7a5a" font-weight="bold">6</text>
  <text x="320" y="392" font-size="10" fill="#1f7a5a" font-weight="bold">✓</text>
  <text x="380" y="392" font-size="10" fill="#666">Optimal</text>
  <text x="440" y="392" font-size="10" fill="#d48924">3d</text>
  <text x="510" y="392" font-size="10" fill="#666">6h ago</text>
  <rect x="590" y="380" width="50" height="16" rx="4" class="badge-green"/>
  <text x="615" y="392" font-size="8" fill="#388e3c" text-anchor="middle">Active</text>

  <line x1="22" y1="500" x2="658" y2="500" stroke="#ddd"/>
  <text x="340" y="515" font-size="10" fill="#666" text-anchor="middle">Showing 5 of 14 fellows · +9 more →</text>

  <!-- Right panels -->
  <rect x="685" y="180" width="265" height="100" class="panel"/>
  <text x="695" y="200" class="label">📈 Weekly Trend</text>
  <line x1="695" y1="210" x2="940" y2="210" stroke="#eee"/>
  <rect x="695" y="220" width="28" height="30" rx="3" fill="#1f7a5a" opacity="0.5"/>
  <rect x="728" y="210" width="28" height="40" rx="3" fill="#1f7a5a" opacity="0.6"/>
  <rect x="761" y="195" width="28" height="55" rx="3" fill="#1f7a5a" opacity="0.8"/>
  <rect x="794" y="220" width="28" height="30" rx="3" fill="#1f7a5a" opacity="0.5"/>
  <rect x="827" y="205" width="28" height="45" rx="3" fill="#1f7a5a" opacity="0.7"/>
  <rect x="860" y="185" width="28" height="65" rx="3" fill="#1f7a5a"/>
  <text x="695" y="268" class="sublabel" text-anchor="start">W22  W23  W24  W25  W26  W27</text>

  <rect x="685" y="295" width="265" height="100" class="panel"/>
  <text x="695" y="315" class="label">🗺️ District Breakdown</text>
  <line x1="695" y1="325" x2="940" y2="325" stroke="#eee"/>
  <text x="695" y="342" font-size="9" fill="#333">East Khasi Hills</text>
  <rect x="800" y="333" width="80" height="12" rx="4" class="badge-green"/><text x="800" y="346" font-size="8" fill="#388e3c">3/3 met ✦</text>
  <text x="695" y="360" font-size="9" fill="#333">West Garo Hills</text>
  <rect x="800" y="351" width="80" height="12" rx="4" class="badge-red"/><text x="800" y="364" font-size="8" fill="#d32f2f">0/2 met ✦</text>
  <text x="695" y="378" font-size="9" fill="#333">Ri Bhoi</text>
  <rect x="800" y="369" width="80" height="12" rx="4" class="badge-green"/><text x="800" y="382" font-size="8" fill="#388e3c">2/2 met ✦</text>

  <!-- Bottom panels -->
  <rect x="12" y="535" width="460" height="130" class="panel"/>
  <text x="22" y="555" class="label">⚠ Stuck &amp; Overdue Items</text>
  <line x1="22" y1="565" x2="462" y2="565" stroke="#eee"/>
  <text x="22" y="582" font-size="10" fill="#d32f2f">🔴 Rajesh Verma — Data analysis task stuck for 5 days</text>
  <text x="22" y="600" font-size="10" fill="#d32f2f">🔴 John Lyngdoh — Monthly report overdue by 2 days</text>
  <text x="22" y="618" font-size="10" fill="#e8942a">🟡 3 open tasks: 1 ongoing, 2 not started</text>
  <text x="22" y="636" font-size="10" fill="#666" font-style="italic">→ Manage tasks in Alerts panel</text>

  <rect x="488" y="535" width="460" height="130" class="panel"/>
  <text x="498" y="555" class="label">◎ Open Support Requests</text>
  <line x1="498" y1="565" x2="938" y2="565" stroke="#eee"/>
  <text x="498" y="582" font-size="10" fill="#d32f2f">🔴 Anita Sharma — Data access for Q3 report (High)</text>
  <rect x="830" y="573" width="60" height="16" rx="4" class="badge-red"/>
  <text x="860" y="585" font-size="8" fill="#d32f2f" text-anchor="middle">Take →</text>
  <text x="498" y="600" font-size="10" fill="#e8942a">🟡 Priya Nongrum — Field visit logistics (Medium)</text>
  <rect x="830" y="591" width="60" height="16" rx="4" class="badge-amber"/>
  <text x="860" y="603" font-size="8" fill="#e8942a" text-anchor="middle">Take →</text>
  <text x="498" y="620" font-size="10" fill="#666">Rajesh Verma — LMS access issue (Low)</text>
  <rect x="830" y="611" width="60" height="16" rx="4" class="badge-green"/>
  <text x="860" y="623" font-size="8" fill="#388e3c" text-anchor="middle">Take →</text>
</svg>